<?xml version="1.0" encoding="iso-8859-1"?>
<!-- Generator: Adobe Illustrator 23.0.3, SVG Export Plug-In . SVG Version: 6.00 Build 0)  -->
<svg version="1.1" id="Layer_1" xmlns="http://www.w3.org/2000/svg" xmlns:xlink="http://www.w3.org/1999/xlink" x="0px" y="0px"
	 viewBox="0 0 1080 1080" style="enable-background:new 0 0 1080 1080;" xml:space="preserve">
<g>
	<g>
		<g>
			<path style="fill:none;stroke:#622366;stroke-width:1.2;stroke-miterlimit:10;" d="M849.923,413.453
				c0,37.677-30.539,68.215-68.21,68.215c-37.674,0-68.215-30.539-68.215-68.215c0-37.669,30.541-68.207,68.215-68.207
				C819.384,345.246,849.923,375.785,849.923,413.453z"/>
			<path style="fill:none;stroke:#622366;stroke-width:1.2;stroke-miterlimit:10;" d="M841.085,413.453
				c0,32.795-26.582,59.378-59.372,59.378c-32.793,0-59.378-26.583-59.378-59.378c0-32.788,26.584-59.37,59.378-59.37
				C814.503,354.083,841.085,380.665,841.085,413.453z"/>
			<path style="fill:none;stroke:#622366;stroke-width:1.2;stroke-miterlimit:10;" d="M832.248,413.453
				c0,27.914-22.625,50.54-50.535,50.54c-27.913,0-50.54-22.626-50.54-50.54c0-27.907,22.627-50.532,50.54-50.532
				C809.622,362.921,832.248,385.546,832.248,413.453z"/>
			<path style="fill:none;stroke:#622366;stroke-width:1.2;stroke-miterlimit:10;" d="M823.41,413.453
				c0,23.033-18.668,41.703-41.697,41.703c-23.032,0-41.702-18.67-41.702-41.703c0-23.027,18.67-41.695,41.702-41.695
				C804.742,371.758,823.41,390.427,823.41,413.453z"/>
			<path style="fill:none;stroke:#622366;stroke-width:1.2;stroke-miterlimit:10;" d="M814.573,413.453
				c0,18.152-14.712,32.865-32.86,32.865c-18.151,0-32.864-14.713-32.864-32.865c0-18.146,14.713-32.857,32.864-32.857
				C799.861,380.596,814.573,395.307,814.573,413.453z"/>
			<path style="fill:none;stroke:#622366;stroke-width:1.2;stroke-miterlimit:10;" d="M805.735,413.453
				c0,13.271-10.755,24.028-24.022,24.028c-13.271,0-24.026-10.757-24.026-24.028c0-13.265,10.755-24.02,24.026-24.02
				C794.981,389.433,805.735,400.188,805.735,413.453z"/>
			<path style="fill:none;stroke:#622366;stroke-width:1.2;stroke-miterlimit:10;" d="M796.898,413.453
				c0,8.39-6.798,15.19-15.185,15.19c-8.39,0-15.188-6.801-15.188-15.19c0-8.385,6.798-15.182,15.188-15.182
				C790.1,398.271,796.898,405.069,796.898,413.453z"/>
		</g>
		<line style="fill:none;stroke:#622366;stroke-miterlimit:10;" x1="77.013" y1="708.443" x2="717.934" y2="67.519"/>
		<line style="fill:none;stroke:#CE84DA;stroke-miterlimit:10;" x1="147.572" y1="697.06" x2="730.118" y2="113.965"/>
		
			<line style="fill:none;stroke:#CE84DA;stroke-width:8;stroke-linecap:round;stroke-miterlimit:10;" x1="252.576" y1="900.49" x2="451.323" y2="701.743"/>
		<g>
			<path style="fill:none;stroke:#CE84DA;stroke-width:2.77;stroke-miterlimit:10;" d="M813.038,618.279
				c0,86.926-70.463,157.389-157.381,157.389c-86.919,0-157.381-70.463-157.381-157.389c0-86.911,70.463-157.373,157.381-157.373
				C742.575,460.906,813.038,531.369,813.038,618.279z"/>
			<path style="fill:none;stroke:#CE84DA;stroke-width:2.77;stroke-miterlimit:10;" d="M792.648,618.279
				c0,75.664-61.333,136.999-136.991,136.999c-75.658,0-136.991-61.334-136.991-136.999c0-75.65,61.333-136.983,136.991-136.983
				C731.315,481.297,792.648,542.63,792.648,618.279z"/>
			<path style="fill:none;stroke:#CE84DA;stroke-width:2.77;stroke-miterlimit:10;" d="M772.257,618.279
				c0,64.402-52.204,116.608-116.6,116.608c-64.397,0-116.601-52.206-116.601-116.608c0-64.389,52.204-116.592,116.601-116.592
				C720.054,501.687,772.257,553.891,772.257,618.279z"/>
			<path style="fill:none;stroke:#CE84DA;stroke-width:2.77;stroke-miterlimit:10;" d="M751.867,618.279
				c0,53.14-43.074,96.218-96.21,96.218c-53.136,0-96.21-43.078-96.21-96.218c0-53.128,43.074-96.202,96.21-96.202
				C708.793,522.077,751.867,565.152,751.867,618.279z"/>
			<path style="fill:none;stroke:#CE84DA;stroke-width:2.77;stroke-miterlimit:10;" d="M731.476,618.279
				c0,41.878-33.945,75.827-75.819,75.827c-41.875,0-75.82-33.95-75.82-75.827c0-41.867,33.945-75.811,75.82-75.811
				C697.532,542.468,731.476,576.412,731.476,618.279z"/>
			<path style="fill:none;stroke:#CE84DA;stroke-width:2.77;stroke-miterlimit:10;" d="M711.086,618.279
				c0,30.615-24.815,55.437-55.429,55.437c-30.614,0-55.429-24.822-55.429-55.437c0-30.606,24.815-55.421,55.429-55.421
				C686.271,562.858,711.086,587.673,711.086,618.279z"/>
			<path style="fill:none;stroke:#CE84DA;stroke-width:2.77;stroke-miterlimit:10;" d="M690.696,618.279
				c0,19.353-15.685,35.047-35.039,35.047c-19.353,0-35.039-15.693-35.039-35.047c0-19.345,15.685-35.031,35.039-35.031
				C675.01,583.249,690.696,598.934,690.696,618.279z"/>
		</g>
		
			<line style="fill:none;stroke:#5FA5E0;stroke-width:7;stroke-linecap:round;stroke-linejoin:round;stroke-miterlimit:10;" x1="133.166" y1="827.6" x2="848.344" y2="112.419"/>
		<line style="fill:none;stroke:#CE84DA;stroke-miterlimit:10;" x1="232.225" y1="786.67" x2="972.067" y2="46.133"/>
		
			<line style="fill:none;stroke:#5FA5E0;stroke-width:7;stroke-linecap:round;stroke-linejoin:round;stroke-miterlimit:10;" x1="198.963" y1="876.355" x2="914.141" y2="161.174"/>
		<path style="fill:#622366;" d="M1049.002,970.165l-49.682,49.682c-3.196,3.196-3.196,8.427,0,11.623l0,0
			c3.196,3.196,8.427,3.196,11.623,0l49.682-49.682c3.196-3.196,3.196-8.427,0-11.623l0,0
			C1057.428,966.969,1052.198,966.969,1049.002,970.165z"/>
		<path style="fill:#00D6CA;" d="M1018.631,926.382l-65.826,65.826c-3.196,3.196-3.196,8.427,0,11.623l0,0
			c3.196,3.196,8.427,3.196,11.623,0l65.826-65.826c3.196-3.196,3.196-8.427,0-11.623l0,0
			C1027.057,923.186,1021.827,923.186,1018.631,926.382z"/>
		<path style="fill:#5FA5E0;" d="M102.679,615.819L8.074,710.423c-3.196,3.197-3.196,8.427,0,11.623l0,0
			c3.196,3.196,8.427,3.196,11.623,0l94.605-94.605c3.196-3.196,3.196-8.427,0-11.623l0,0
			C111.106,612.622,105.876,612.622,102.679,615.819z"/>
		<path style="fill:#5FA5E0;" d="M134.657,92.157l-94.605,94.605c-3.196,3.196-3.196,8.427,0,11.623l0,0
			c3.196,3.196,8.427,3.196,11.623,0l94.605-94.605c3.196-3.196,3.196-8.427,0-11.623l0,0
			C143.084,88.961,137.853,88.961,134.657,92.157z"/>
		<path style="fill:#CE84DA;" d="M80.421,77.148L29.27,128.299c-3.196,3.196-3.196,8.427,0,11.623l0,0
			c3.196,3.196,8.427,3.196,11.623,0L92.044,88.77c3.196-3.196,3.196-8.427,0-11.623l0,0C88.848,73.951,83.617,73.951,80.421,77.148
			z"/>
		
			<ellipse transform="matrix(0.3827 -0.9239 0.9239 0.3827 -487.0788 1255.1276)" style="fill:none;stroke:#CE84DA;stroke-width:2;stroke-miterlimit:10;" cx="695.677" cy="992.046" rx="20.249" ry="20.249"/>
		
			<ellipse transform="matrix(0.3827 -0.9239 0.9239 0.3827 405.9532 776.1256)" style="fill:none;stroke:#CE84DA;stroke-width:2;stroke-miterlimit:10;" cx="783.754" cy="84.287" rx="20.249" ry="20.249"/>
		
			<ellipse transform="matrix(0.3827 -0.9239 0.9239 0.3827 -4.6034 277.7482)" style="fill:none;stroke:#CE84DA;stroke-width:2;stroke-miterlimit:10;" cx="205.538" cy="142.319" rx="20.249" ry="20.249"/>
		<path style="fill:none;stroke:#622366;stroke-width:3;stroke-miterlimit:10;" d="M138.304,751.437
			c0,10.483-8.498,18.981-18.981,18.981s-18.981-8.498-18.981-18.981c0-10.483,8.498-18.98,18.981-18.98
			S138.304,740.954,138.304,751.437z"/>
		<path style="fill:none;stroke:#622366;stroke-width:3;stroke-miterlimit:10;" d="M276.321,84.287
			c0,10.483-8.498,18.981-18.981,18.981s-18.981-8.498-18.981-18.981c0-10.483,8.498-18.98,18.981-18.98
			S276.321,73.804,276.321,84.287z"/>
		<g>
			<path style="fill:#FFA9A1;" d="M743.227,950.91c2.353-2.016,2.626-5.558,0.61-7.912c-2.017-2.353-5.558-2.626-7.912-0.61
				c-2.353,2.016-2.626,5.558-0.61,7.912C737.331,952.653,740.873,952.926,743.227,950.91z"/>
			<path style="fill:#FFA9A1;" d="M758.087,938.177c2.353-2.016,2.626-5.559,0.61-7.912c-2.016-2.353-5.558-2.626-7.912-0.61
				c-2.353,2.016-2.626,5.558-0.61,7.912C752.191,939.92,755.734,940.193,758.087,938.177z"/>
			<path style="fill:#FFA9A1;" d="M772.947,925.443c2.353-2.016,2.626-5.558,0.61-7.912c-2.016-2.353-5.558-2.626-7.912-0.61
				c-2.353,2.016-2.626,5.559-0.61,7.912C767.052,927.187,770.594,927.46,772.947,925.443z"/>
			<path style="fill:#FFA9A1;" d="M787.808,912.71c2.353-2.016,2.626-5.559,0.61-7.912c-2.016-2.353-5.558-2.626-7.912-0.61
				c-2.353,2.016-2.626,5.558-0.61,7.912S785.454,914.726,787.808,912.71z"/>
			<path style="fill:#FFA9A1;" d="M802.668,899.977c2.353-2.016,2.626-5.559,0.61-7.912c-2.017-2.353-5.559-2.626-7.912-0.61
				c-2.353,2.016-2.626,5.559-0.61,7.912C796.773,901.72,800.315,901.993,802.668,899.977z"/>
			<path style="fill:#FFA9A1;" d="M817.529,887.244c2.353-2.016,2.626-5.559,0.61-7.912c-2.016-2.353-5.559-2.626-7.912-0.61
				c-2.353,2.016-2.626,5.559-0.61,7.912C811.633,888.987,815.175,889.26,817.529,887.244z"/>
			<path style="fill:#FFA9A1;" d="M832.389,874.51c2.353-2.016,2.626-5.558,0.61-7.912c-2.016-2.353-5.559-2.626-7.912-0.61
				c-2.353,2.016-2.626,5.558-0.61,7.912C826.494,876.254,830.036,876.527,832.389,874.51z"/>
			<path style="fill:#FFA9A1;" d="M847.249,861.777c2.353-2.016,2.626-5.559,0.61-7.912c-2.016-2.353-5.558-2.626-7.912-0.61
				c-2.353,2.016-2.626,5.559-0.61,7.912C841.354,863.521,844.896,863.794,847.249,861.777z"/>
			<path style="fill:#FFA9A1;" d="M862.11,849.044c2.353-2.016,2.626-5.558,0.61-7.912c-2.017-2.353-5.559-2.626-7.912-0.61
				c-2.353,2.017-2.626,5.558-0.61,7.912C856.215,850.787,859.757,851.06,862.11,849.044z"/>
			<path style="fill:#FFA9A1;" d="M876.97,836.311c2.353-2.016,2.626-5.558,0.61-7.912c-2.016-2.353-5.559-2.626-7.912-0.61
				c-2.353,2.017-2.626,5.559-0.61,7.912C871.075,838.054,874.617,838.327,876.97,836.311z"/>
			<path style="fill:#FFA9A1;" d="M760.299,955.796c2.353-2.016,2.626-5.559,0.61-7.912c-2.017-2.353-5.558-2.626-7.912-0.61
				c-2.353,2.016-2.626,5.558-0.61,7.912C754.403,957.539,757.945,957.812,760.299,955.796z"/>
			<path style="fill:#FFA9A1;" d="M775.159,943.062c2.353-2.016,2.626-5.558,0.61-7.912s-5.559-2.626-7.912-0.61
				c-2.353,2.016-2.626,5.558-0.61,7.912C769.264,944.806,772.806,945.079,775.159,943.062z"/>
			<path style="fill:#FFA9A1;" d="M790.019,930.329c2.353-2.016,2.626-5.559,0.61-7.912c-2.016-2.353-5.559-2.626-7.912-0.61
				c-2.353,2.016-2.626,5.559-0.61,7.912C784.124,932.073,787.666,932.346,790.019,930.329z"/>
			<path style="fill:#FFA9A1;" d="M804.88,917.596c2.353-2.016,2.626-5.559,0.61-7.912c-2.016-2.353-5.559-2.626-7.912-0.61
				c-2.353,2.016-2.626,5.559-0.61,7.912C798.984,919.339,802.526,919.612,804.88,917.596z"/>
			<path style="fill:#FFA9A1;" d="M819.74,904.863c2.353-2.016,2.626-5.558,0.61-7.912c-2.016-2.353-5.558-2.626-7.912-0.61
				c-2.353,2.016-2.626,5.558-0.61,7.912C813.845,906.606,817.387,906.879,819.74,904.863z"/>
			<path style="fill:#FFA9A1;" d="M834.601,892.13c2.353-2.017,2.626-5.559,0.61-7.912c-2.016-2.353-5.558-2.626-7.912-0.61
				c-2.353,2.017-2.626,5.559-0.61,7.912C828.705,893.873,832.247,894.146,834.601,892.13z"/>
			<path style="fill:#FFA9A1;" d="M849.461,879.396c2.353-2.017,2.626-5.559,0.61-7.912c-2.016-2.353-5.558-2.626-7.912-0.61
				c-2.353,2.017-2.626,5.559-0.61,7.912C843.566,881.14,847.108,881.413,849.461,879.396z"/>
			<path style="fill:#FFA9A1;" d="M864.322,866.663c2.353-2.016,2.626-5.558,0.61-7.912c-2.016-2.353-5.558-2.626-7.912-0.61
				c-2.353,2.016-2.626,5.559-0.61,7.912S861.968,868.68,864.322,866.663z"/>
			<path style="fill:#FFA9A1;" d="M879.182,853.93c2.353-2.017,2.626-5.559,0.61-7.912c-2.016-2.353-5.559-2.626-7.912-0.61
				c-2.353,2.016-2.626,5.559-0.61,7.912C873.286,855.673,876.829,855.946,879.182,853.93z"/>
			<path style="fill:#FFA9A1;" d="M762.51,973.415c2.353-2.016,2.626-5.558,0.61-7.912c-2.016-2.353-5.558-2.626-7.912-0.61
				c-2.353,2.016-2.626,5.558-0.61,7.912C756.615,975.158,760.157,975.431,762.51,973.415z"/>
			<path style="fill:#FFA9A1;" d="M777.371,960.682c2.353-2.016,2.626-5.559,0.61-7.912c-2.016-2.353-5.559-2.626-7.912-0.61
				c-2.353,2.016-2.626,5.559-0.61,7.912C771.475,962.425,775.017,962.698,777.371,960.682z"/>
			<path style="fill:#FFA9A1;" d="M792.231,947.948c2.353-2.016,2.626-5.559,0.61-7.912c-2.016-2.353-5.559-2.626-7.912-0.61
				c-2.353,2.017-2.626,5.559-0.61,7.912C786.336,949.692,789.878,949.965,792.231,947.948z"/>
			<path style="fill:#FFA9A1;" d="M807.091,935.215c2.353-2.017,2.626-5.558,0.61-7.912c-2.016-2.353-5.559-2.626-7.912-0.61
				c-2.353,2.016-2.626,5.558-0.61,7.912C801.196,936.959,804.738,937.232,807.091,935.215z"/>
			<path style="fill:#FFA9A1;" d="M821.952,922.482c2.353-2.017,2.626-5.558,0.61-7.912c-2.017-2.353-5.559-2.626-7.912-0.61
				c-2.353,2.017-2.626,5.559-0.61,7.912C816.057,924.225,819.599,924.498,821.952,922.482z"/>
			<path style="fill:#FFA9A1;" d="M836.812,909.749c2.353-2.017,2.626-5.559,0.61-7.912c-2.016-2.353-5.559-2.626-7.912-0.61
				c-2.353,2.016-2.626,5.559-0.61,7.912C830.917,911.492,834.459,911.765,836.812,909.749z"/>
			<path style="fill:#FFA9A1;" d="M851.673,897.016c2.353-2.016,2.626-5.558,0.61-7.912c-2.016-2.353-5.559-2.626-7.912-0.61
				c-2.353,2.016-2.626,5.558-0.61,7.912C845.777,898.759,849.32,899.032,851.673,897.016z"/>
			<path style="fill:#FFA9A1;" d="M866.533,884.282c2.353-2.016,2.626-5.559,0.61-7.912c-2.016-2.353-5.559-2.626-7.912-0.61
				c-2.353,2.016-2.626,5.559-0.61,7.912C860.638,886.026,864.18,886.299,866.533,884.282z"/>
			<path style="fill:#FFA9A1;" d="M881.394,871.549c2.353-2.016,2.626-5.559,0.61-7.912c-2.017-2.353-5.559-2.626-7.912-0.61
				c-2.353,2.016-2.626,5.559-0.61,7.912C875.498,873.292,879.04,873.565,881.394,871.549z"/>
			<path style="fill:#FFA9A1;" d="M888.952,850.294c-2.353,2.016-2.626,5.559-0.61,7.912c2.017,2.353,5.559,2.626,7.912,0.61
				c2.353-2.016,2.626-5.558,0.61-7.912C894.848,848.551,891.305,848.278,888.952,850.294z"/>
			<path style="fill:#FFA9A1;" d="M772.28,969.779c-2.353,2.017-2.626,5.559-0.61,7.912c2.017,2.353,5.559,2.626,7.912,0.61
				c2.353-2.017,2.626-5.559,0.61-7.912C778.176,968.036,774.634,967.763,772.28,969.779z"/>
			<path style="fill:#FFA9A1;" d="M794.443,965.568c2.353-2.016,2.626-5.558,0.61-7.912c-2.016-2.353-5.558-2.626-7.912-0.61
				c-2.353,2.017-2.626,5.559-0.61,7.912C788.547,967.311,792.089,967.584,794.443,965.568z"/>
			<path style="fill:#FFA9A1;" d="M809.303,952.834c2.353-2.017,2.626-5.559,0.61-7.912c-2.016-2.353-5.559-2.626-7.912-0.61
				c-2.353,2.016-2.626,5.558-0.61,7.912C803.408,954.578,806.95,954.851,809.303,952.834z"/>
			<path style="fill:#FFA9A1;" d="M824.163,940.101c2.353-2.016,2.626-5.559,0.61-7.912c-2.016-2.353-5.559-2.626-7.912-0.61
				c-2.353,2.016-2.626,5.559-0.61,7.912C818.268,941.844,821.81,942.117,824.163,940.101z"/>
			<path style="fill:#FFA9A1;" d="M839.024,927.368c2.353-2.016,2.626-5.558,0.61-7.912c-2.017-2.353-5.559-2.626-7.912-0.61
				c-2.353,2.016-2.626,5.558-0.61,7.912C833.128,929.111,836.671,929.384,839.024,927.368z"/>
			<path style="fill:#FFA9A1;" d="M853.884,914.635c2.353-2.016,2.626-5.559,0.61-7.912c-2.016-2.353-5.558-2.626-7.912-0.61
				c-2.353,2.016-2.626,5.559-0.61,7.912C847.989,916.378,851.531,916.651,853.884,914.635z"/>
			<path style="fill:#FFA9A1;" d="M868.745,901.901c2.353-2.016,2.626-5.558,0.61-7.912c-2.016-2.353-5.558-2.626-7.912-0.61
				c-2.353,2.016-2.626,5.559-0.61,7.912C862.849,903.645,866.391,903.918,868.745,901.901z"/>
			<path style="fill:#FFA9A1;" d="M883.605,889.168c2.353-2.016,2.626-5.559,0.61-7.912c-2.016-2.353-5.558-2.626-7.912-0.61
				c-2.353,2.016-2.626,5.558-0.61,7.912C877.71,890.911,881.252,891.185,883.605,889.168z"/>
			<path style="fill:#FFA9A1;" d="M898.466,876.435c2.353-2.016,2.626-5.559,0.61-7.912c-2.017-2.353-5.559-2.626-7.912-0.61
				c-2.353,2.016-2.626,5.559-0.61,7.912C892.57,878.178,896.112,878.451,898.466,876.435z"/>
			<path style="fill:#FFA9A1;" d="M774.492,987.399c-2.353,2.016-2.626,5.558-0.61,7.912c2.016,2.353,5.558,2.626,7.912,0.61
				c2.353-2.016,2.626-5.559,0.61-7.912C780.387,985.655,776.845,985.382,774.492,987.399z"/>
			<path style="fill:#FFA9A1;" d="M789.352,974.665c-2.353,2.016-2.626,5.559-0.61,7.912c2.017,2.353,5.559,2.626,7.912,0.61
				c2.353-2.016,2.626-5.558,0.61-7.912C795.248,972.922,791.706,972.649,789.352,974.665z"/>
			<path style="fill:#FFA9A1;" d="M804.213,961.932c-2.353,2.016-2.626,5.559-0.61,7.912c2.016,2.353,5.559,2.626,7.912,0.61
				c2.353-2.016,2.626-5.559,0.61-7.912C810.108,960.189,806.566,959.916,804.213,961.932z"/>
			<path style="fill:#FFA9A1;" d="M819.073,949.199c-2.353,2.016-2.626,5.558-0.61,7.912c2.016,2.353,5.559,2.626,7.912,0.61
				c2.353-2.016,2.626-5.558,0.61-7.912C824.969,947.455,821.426,947.182,819.073,949.199z"/>
			<path style="fill:#FFA9A1;" d="M833.934,936.466c-2.353,2.016-2.626,5.559-0.61,7.912c2.016,2.353,5.559,2.626,7.912,0.61
				c2.353-2.016,2.626-5.559,0.61-7.912C839.829,934.722,836.287,934.449,833.934,936.466z"/>
			<path style="fill:#FFA9A1;" d="M848.794,923.732c-2.353,2.016-2.626,5.559-0.61,7.912c2.017,2.353,5.559,2.626,7.912,0.61
				c2.353-2.016,2.626-5.559,0.61-7.912C854.689,921.989,851.147,921.716,848.794,923.732z"/>
			<path style="fill:#FFA9A1;" d="M863.655,910.999c-2.353,2.016-2.626,5.558-0.61,7.912c2.016,2.353,5.559,2.626,7.912,0.61
				c2.353-2.016,2.626-5.558,0.61-7.912C869.55,909.256,866.008,908.983,863.655,910.999z"/>
			<path style="fill:#FFA9A1;" d="M878.515,898.266c-2.353,2.016-2.626,5.559-0.61,7.912c2.016,2.353,5.558,2.626,7.912,0.61
				c2.353-2.016,2.626-5.559,0.61-7.912C884.41,896.523,880.868,896.25,878.515,898.266z"/>
			<path style="fill:#FFA9A1;" d="M893.375,885.533c-2.353,2.016-2.626,5.559-0.61,7.912c2.016,2.353,5.558,2.626,7.912,0.61
				c2.353-2.016,2.626-5.559,0.61-7.912C899.271,883.789,895.728,883.516,893.375,885.533z"/>
			<path style="fill:#FFA9A1;" d="M908.236,872.799c-2.353,2.016-2.626,5.558-0.61,7.912c2.017,2.353,5.559,2.626,7.912,0.61
				c2.353-2.016,2.626-5.558,0.61-7.912C914.131,871.056,910.589,870.783,908.236,872.799z"/>
			<path style="fill:#FFA9A1;" d="M791.564,992.284c-2.353,2.016-2.626,5.559-0.61,7.912c2.016,2.353,5.558,2.626,7.912,0.61
				c2.353-2.016,2.626-5.559,0.61-7.912C797.459,990.541,793.917,990.268,791.564,992.284z"/>
			<path style="fill:#FFA9A1;" d="M806.424,979.551c-2.353,2.016-2.626,5.558-0.61,7.912c2.016,2.353,5.558,2.626,7.912,0.61
				c2.353-2.016,2.626-5.558,0.61-7.912C812.32,977.808,808.778,977.535,806.424,979.551z"/>
			<path style="fill:#FFA9A1;" d="M821.285,966.818c-2.353,2.016-2.626,5.558-0.61,7.912c2.016,2.353,5.558,2.626,7.912,0.61
				c2.353-2.016,2.626-5.559,0.61-7.912C827.18,965.075,823.638,964.802,821.285,966.818z"/>
			<path style="fill:#FFA9A1;" d="M836.145,954.085c-2.353,2.016-2.626,5.559-0.61,7.912c2.016,2.353,5.559,2.626,7.912,0.61
				c2.353-2.016,2.626-5.559,0.61-7.912C842.041,952.341,838.498,952.068,836.145,954.085z"/>
			<path style="fill:#FFA9A1;" d="M851.006,941.351c-2.353,2.016-2.626,5.558-0.61,7.912c2.017,2.353,5.558,2.626,7.912,0.61
				c2.353-2.016,2.626-5.558,0.61-7.912C856.901,939.608,853.359,939.335,851.006,941.351z"/>
			<path style="fill:#FFA9A1;" d="M865.866,928.618c-2.353,2.016-2.626,5.559-0.61,7.912c2.016,2.353,5.559,2.626,7.912,0.61
				c2.353-2.016,2.626-5.559,0.61-7.912C871.761,926.875,868.219,926.602,865.866,928.618z"/>
			<path style="fill:#FFA9A1;" d="M880.727,915.885c-2.353,2.016-2.626,5.559-0.61,7.912c2.016,2.353,5.559,2.626,7.912,0.61
				c2.353-2.016,2.626-5.559,0.61-7.912C886.622,914.142,883.08,913.869,880.727,915.885z"/>
			<path style="fill:#FFA9A1;" d="M895.587,903.152c-2.353,2.016-2.626,5.558-0.61,7.912c2.016,2.353,5.558,2.626,7.912,0.61
				c2.353-2.016,2.626-5.558,0.61-7.912C901.482,901.408,897.94,901.135,895.587,903.152z"/>
			<path style="fill:#FFA9A1;" d="M910.447,890.418c-2.353,2.017-2.626,5.559-0.61,7.912c2.016,2.353,5.559,2.626,7.912,0.61
				c2.353-2.016,2.626-5.558,0.61-7.912C916.343,888.675,912.8,888.402,910.447,890.418z"/>
		</g>
		<g>
			<polygon style="fill:#CE84DA;" points="186.95,351.157 186.597,351.513 186.597,562.764 186.95,563.125 190.615,559.452 
				190.615,354.819 			"/>
			<polygon style="fill:#CE84DA;" points="198.194,362.401 198.194,551.881 202.218,547.865 202.218,366.417 			"/>
			<polygon style="fill:#CE84DA;" points="209.786,373.988 209.786,540.291 213.797,536.268 213.797,378.009 			"/>
			<polygon style="fill:#CE84DA;" points="221.384,385.583 221.384,528.689 225.394,524.67 225.394,389.607 			"/>
			<polygon style="fill:#CE84DA;" points="232.974,397.175 232.974,517.099 236.994,513.083 236.994,401.196 			"/>
			<polygon style="fill:#CE84DA;" points="244.571,408.77 244.571,505.509 248.584,501.488 248.584,412.785 			"/>
			<polygon style="fill:#CE84DA;" points="256.158,420.357 256.158,493.917 260.181,489.899 260.181,424.38 			"/>
			<polygon style="fill:#CE84DA;" points="267.75,431.954 267.75,482.32 271.768,478.31 271.768,435.975 			"/>
			<polygon style="fill:#CE84DA;" points="279.348,443.546 279.348,470.725 283.371,466.709 283.371,447.57 			"/>
			<polygon style="fill:#CE84DA;" points="290.934,455.144 290.934,459.133 292.936,457.142 			"/>
		</g>
		<g>
			<polygon style="fill:#5FA5E0;" points="276.253,258.911 276.48,258.684 276.48,123.829 276.253,123.599 273.914,125.943 
				273.914,256.573 			"/>
			<polygon style="fill:#5FA5E0;" points="269.075,251.734 269.075,130.777 266.506,133.34 266.506,249.17 			"/>
			<polygon style="fill:#5FA5E0;" points="261.675,244.336 261.675,138.174 259.114,140.742 259.114,241.771 			"/>
			<polygon style="fill:#5FA5E0;" points="254.272,236.936 254.272,145.582 251.712,148.148 251.712,234.368 			"/>
			<polygon style="fill:#5FA5E0;" points="246.872,229.536 246.872,152.979 244.307,155.542 244.307,226.968 			"/>
			<polygon style="fill:#5FA5E0;" points="239.469,222.134 239.469,160.379 236.907,162.945 236.907,219.571 			"/>
			<polygon style="fill:#5FA5E0;" points="232.072,214.736 232.072,167.779 229.504,170.342 229.504,212.168 			"/>
			<polygon style="fill:#5FA5E0;" points="224.672,207.334 224.672,175.182 222.107,177.742 222.107,204.766 			"/>
			<polygon style="fill:#5FA5E0;" points="217.27,199.934 217.27,182.585 214.701,185.147 214.701,197.366 			"/>
			<polygon style="fill:#5FA5E0;" points="209.872,192.531 209.872,189.984 208.596,191.252 			"/>
		</g>
		<g>
			<polygon style="fill:#5FA5E0;" points="72.357,1023.803 72.592,1023.583 77.068,888.802 76.848,888.565 74.434,890.83 
				70.098,1021.388 			"/>
			<polygon style="fill:#5FA5E0;" points="65.422,1016.391 69.436,895.501 66.784,897.977 62.94,1013.744 			"/>
			<polygon style="fill:#5FA5E0;" points="58.271,1008.752 61.795,902.648 59.15,905.13 55.797,1006.103 			"/>
			<polygon style="fill:#5FA5E0;" points="51.118,1001.11 54.15,909.806 51.506,912.286 48.645,998.458 			"/>
			<polygon style="fill:#5FA5E0;" points="43.968,993.469 46.509,916.954 43.86,919.43 41.489,990.817 			"/>
			<polygon style="fill:#5FA5E0;" points="36.815,985.825 38.865,924.104 36.218,926.583 34.339,983.178 			"/>
			<polygon style="fill:#5FA5E0;" points="29.667,978.186 31.226,931.255 28.574,933.731 27.186,975.534 			"/>
			<polygon style="fill:#5FA5E0;" points="22.517,970.542 23.584,938.407 20.935,940.881 20.038,967.89 			"/>
			<polygon style="fill:#5FA5E0;" points="15.364,962.9 15.94,945.56 13.288,948.037 12.883,960.248 			"/>
			<polygon style="fill:#5FA5E0;" points="8.217,955.256 8.301,952.711 6.984,953.936 			"/>
		</g>
		<g>
			<polygon style="fill:#5FA5E0;" points="1074.371,918.051 1074.598,917.823 1074.598,782.968 1074.371,782.738 1072.033,785.082 
				1072.033,915.712 			"/>
			<polygon style="fill:#5FA5E0;" points="1067.193,910.873 1067.193,789.916 1064.625,792.479 1064.625,908.31 			"/>
			<polygon style="fill:#5FA5E0;" points="1059.793,903.475 1059.793,797.313 1057.233,799.881 1057.233,900.91 			"/>
			<polygon style="fill:#5FA5E0;" points="1052.391,896.075 1052.391,804.721 1049.83,807.287 1049.83,893.507 			"/>
			<polygon style="fill:#5FA5E0;" points="1044.991,888.675 1044.991,812.118 1042.425,814.682 1042.425,886.107 			"/>
			<polygon style="fill:#5FA5E0;" points="1037.588,881.273 1037.588,819.518 1035.025,822.084 1035.025,878.71 			"/>
			<polygon style="fill:#5FA5E0;" points="1030.191,873.876 1030.191,826.918 1027.622,829.481 1027.622,871.307 			"/>
			<polygon style="fill:#5FA5E0;" points="1022.791,866.473 1022.791,834.321 1020.225,836.881 1020.225,863.905 			"/>
			<polygon style="fill:#5FA5E0;" points="1015.388,859.073 1015.388,841.724 1012.82,844.286 1012.82,856.505 			"/>
			<polygon style="fill:#5FA5E0;" points="1007.991,851.67 1007.991,849.123 1006.715,850.392 			"/>
		</g>
		<g>
			<polygon style="fill:#5FA5E0;" points="651.695,977.407 651.922,977.18 651.922,842.325 651.695,842.095 649.356,844.438 
				649.356,975.069 			"/>
			<polygon style="fill:#5FA5E0;" points="644.517,970.229 644.517,849.272 641.948,851.835 641.948,967.666 			"/>
			<polygon style="fill:#5FA5E0;" points="637.117,962.832 637.117,856.67 634.556,859.238 634.556,960.266 			"/>
			<polygon style="fill:#5FA5E0;" points="629.714,955.432 629.714,864.078 627.154,866.643 627.154,952.864 			"/>
			<polygon style="fill:#5FA5E0;" points="622.314,948.032 622.314,871.475 619.749,874.038 619.749,945.464 			"/>
			<polygon style="fill:#5FA5E0;" points="614.911,940.629 614.911,878.875 612.349,881.44 612.349,938.066 			"/>
			<polygon style="fill:#5FA5E0;" points="607.514,933.232 607.514,886.275 604.946,888.838 604.946,930.664 			"/>
			<polygon style="fill:#5FA5E0;" points="600.114,925.83 600.114,893.677 597.549,896.238 597.549,923.261 			"/>
			<polygon style="fill:#5FA5E0;" points="592.712,918.43 592.712,901.08 590.143,903.643 590.143,915.861 			"/>
			<polygon style="fill:#5FA5E0;" points="585.314,911.027 585.314,908.48 584.038,909.748 			"/>
		</g>
		
			<line style="fill:none;stroke:#FFA9A1;stroke-width:8;stroke-linecap:round;stroke-miterlimit:10;" x1="622.199" y1="277.298" x2="763.675" y2="135.823"/>
		
			<rect x="886.937" y="295.057" transform="matrix(0.7071 -0.7071 0.7071 0.7071 23.2036 781.0286)" style="fill:none;stroke:#CE84DA;stroke-width:2;stroke-miterlimit:10;" width="134.896" height="134.896"/>
		
			<rect x="914.089" y="387.907" transform="matrix(0.7071 -0.7071 0.7071 0.7071 -23.2515 800.272)" style="fill:none;stroke:#622366;stroke-width:2;stroke-miterlimit:10;" width="80.592" height="80.592"/>
		
			<rect x="902.595" y="698.669" transform="matrix(0.7071 -0.7071 0.7071 0.7071 -256.0752 906.6491)" style="fill:none;stroke:#622366;stroke-width:2;stroke-miterlimit:10;" width="127.514" height="127.514"/>
		
			<rect x="62.039" y="220.309" transform="matrix(-0.7071 0.7071 -0.7071 -0.7071 424.5219 399.6708)" style="fill:none;stroke:#FFA9A1;stroke-width:2;stroke-miterlimit:10;" width="134.896" height="134.896"/>
		
			<rect x="89.192" y="181.763" transform="matrix(-0.7071 0.7071 -0.7071 -0.7071 378.0705 287.5101)" style="fill:none;stroke:#00D6CA;stroke-width:2;stroke-miterlimit:10;" width="80.592" height="80.592"/>
		<path style="fill:#00D6CA;" d="M957.414,713.227c0,25.383-20.578,45.975-45.978,45.975c-25.386,0-45.965-20.592-45.965-45.975
			c0-25.395,20.579-45.981,45.965-45.981C936.836,667.246,957.414,687.831,957.414,713.227z"/>
		<path style="fill:#FFA9A1;" d="M151.051,539.612c0,15.619-12.662,28.289-28.289,28.289c-15.621,0-28.281-12.67-28.281-28.289
			c0-15.625,12.66-28.291,28.281-28.291C138.389,511.321,151.051,523.987,151.051,539.612z"/>
		<g>
			<polygon style="fill:#622366;" points="1007.657,611.174 980.304,638.163 1007.657,638.163 			"/>
			<polygon style="fill:#622366;" points="1007.657,578.872 980.304,605.866 1007.657,605.866 			"/>
			<polygon style="fill:#622366;" points="1007.657,546.57 980.304,573.564 1007.657,573.564 			"/>
			<polygon style="fill:#622366;" points="1007.657,514.274 980.304,541.262 1007.657,541.262 			"/>
			<polygon style="fill:#622366;" points="974.67,611.174 947.318,638.163 974.67,638.163 			"/>
			<polygon style="fill:#622366;" points="974.67,578.872 947.318,605.866 974.67,605.866 			"/>
			<polygon style="fill:#622366;" points="974.67,546.57 947.318,573.564 974.67,573.564 			"/>
			<polygon style="fill:#622366;" points="941.683,611.174 914.331,638.163 941.683,638.163 			"/>
			<polygon style="fill:#622366;" points="941.683,578.872 914.331,605.866 941.683,605.866 			"/>
			<polygon style="fill:#622366;" points="908.696,611.174 881.344,638.163 908.696,638.163 			"/>
		</g>
		<g>
			<polygon style="fill:#622366;" points="337.806,998.262 310.454,1025.25 337.806,1025.25 			"/>
			<polygon style="fill:#622366;" points="337.806,965.96 310.454,992.954 337.806,992.954 			"/>
			<polygon style="fill:#622366;" points="337.806,933.658 310.454,960.652 337.806,960.652 			"/>
			<polygon style="fill:#622366;" points="337.806,901.362 310.454,928.35 337.806,928.35 			"/>
			<polygon style="fill:#622366;" points="304.82,998.262 277.467,1025.25 304.82,1025.25 			"/>
			<polygon style="fill:#622366;" points="304.82,965.96 277.467,992.954 304.82,992.954 			"/>
			<polygon style="fill:#622366;" points="304.82,933.658 277.467,960.652 304.82,960.652 			"/>
			<polygon style="fill:#622366;" points="271.833,998.262 244.481,1025.25 271.833,1025.25 			"/>
			<polygon style="fill:#622366;" points="271.833,965.96 244.481,992.954 271.833,992.954 			"/>
			<polygon style="fill:#622366;" points="238.846,998.262 211.494,1025.25 238.846,1025.25 			"/>
		</g>
		<g>
			<path style="fill:none;stroke:#00D6CA;stroke-width:1.128;stroke-miterlimit:10;" d="M927.183,521.947
				c0,28.366-22.992,51.358-51.353,51.358c-28.364,0-51.358-22.992-51.358-51.358c0-28.359,22.994-51.35,51.358-51.35
				C904.192,470.597,927.183,493.589,927.183,521.947z"/>
			<path style="fill:none;stroke:#00D6CA;stroke-width:1.128;stroke-miterlimit:10;" d="M920.53,521.947
				c0,24.691-20.013,44.705-44.699,44.705c-24.689,0-44.705-20.013-44.705-44.705c0-24.684,20.015-44.697,44.705-44.697
				C900.517,477.25,920.53,497.263,920.53,521.947z"/>
			<path style="fill:none;stroke:#00D6CA;stroke-width:1.128;stroke-miterlimit:10;" d="M913.876,521.947
				c0,21.016-17.034,38.051-38.046,38.051c-21.015,0-38.051-17.035-38.051-38.051c0-21.009,17.036-38.043,38.051-38.043
				C896.843,483.904,913.876,500.938,913.876,521.947z"/>
			<path style="fill:none;stroke:#00D6CA;stroke-width:1.128;stroke-miterlimit:10;" d="M907.223,521.947
				c0,17.341-14.055,31.398-31.392,31.398c-17.34,0-31.398-14.056-31.398-31.398c0-17.335,14.057-31.39,31.398-31.39
				C893.168,490.558,907.223,504.612,907.223,521.947z"/>
			<path style="fill:none;stroke:#00D6CA;stroke-width:1.128;stroke-miterlimit:10;" d="M900.569,521.947
				c0,13.666-11.076,24.744-24.739,24.744c-13.666,0-24.744-11.078-24.744-24.744c0-13.66,11.078-24.736,24.744-24.736
				C889.493,497.211,900.569,508.287,900.569,521.947z"/>
			<path style="fill:none;stroke:#00D6CA;stroke-width:1.128;stroke-miterlimit:10;" d="M893.916,521.947
				c0,9.991-8.097,18.091-18.085,18.091c-9.991,0-18.091-8.099-18.091-18.091c0-9.986,8.099-18.083,18.091-18.083
				C885.819,503.865,893.916,511.962,893.916,521.947z"/>
			<path style="fill:none;stroke:#00D6CA;stroke-width:1.128;stroke-miterlimit:10;" d="M887.262,521.947
				c0,6.316-5.118,11.437-11.432,11.437c-6.317,0-11.437-5.121-11.437-11.437c0-6.311,5.12-11.429,11.437-11.429
				C882.144,510.518,887.262,515.636,887.262,521.947z"/>
		</g>
		<line style="fill:none;stroke:#00D6CA;stroke-miterlimit:10;" x1="326.55" y1="879.838" x2="483.846" y2="722.395"/>
		<g>
			<polyline style="fill:none;stroke:#FFA9A1;stroke-width:4.32;stroke-linecap:round;stroke-miterlimit:10;" points="
				383.797,890.181 403.839,879.913 414.107,859.871 434.151,849.601 444.417,829.561 464.462,819.29 474.734,799.244 
				494.782,788.97 505.056,768.922 			"/>
		</g>
		<g>
			<polyline style="fill:none;stroke:#622366;stroke-width:4.32;stroke-linecap:round;stroke-miterlimit:10;" points="
				495.589,227.612 509.975,223 514.584,208.617 528.968,204.007 533.579,189.621 547.969,185.006 552.581,170.62 566.974,166.001 
				571.592,151.609 			"/>
		</g>
		<g>
			<polyline style="fill:none;stroke:#622366;stroke-width:4.32;stroke-linecap:round;stroke-miterlimit:10;" points="
				887.562,979.246 901.948,974.634 906.557,960.251 920.94,955.641 925.552,941.255 939.942,936.64 944.554,922.254 
				958.946,917.635 963.565,903.243 			"/>
		</g>
		<polygon style="fill:#622366;" points="155.397,444.443 144.182,433.226 155.397,422.01 140.704,407.315 129.487,418.531 
			118.269,407.315 103.576,422.01 114.791,433.226 103.576,444.443 118.269,459.138 129.487,447.922 140.704,459.138 		"/>
		<polygon style="fill:#00D6CA;" points="174.588,964.437 163.373,953.223 174.588,942.007 159.895,927.309 148.677,938.527 
			137.459,927.309 122.767,942.007 133.982,953.223 122.767,964.437 137.459,979.136 148.677,967.918 159.895,979.136 		"/>
		<polygon style="fill:#CE84DA;" points="567.098,99.517 559.645,92.061 567.098,84.605 557.333,74.84 549.877,82.293 
			542.421,74.84 532.656,84.605 540.11,92.061 532.656,99.517 542.421,109.282 549.877,101.828 557.333,109.282 		"/>
		<polygon style="fill:#622366;" points="567.098,1023.31 559.645,1015.854 567.098,1008.398 557.333,998.633 549.877,1006.086 
			542.421,998.633 532.656,1008.398 540.11,1015.854 532.656,1023.31 542.421,1033.075 549.877,1025.621 557.333,1033.075 		"/>
		<polygon style="fill:#622366;" points="1035.776,257.594 1028.322,250.138 1035.776,242.681 1026.011,232.917 1018.555,240.37 
			1011.099,232.917 1001.334,242.681 1008.787,250.138 1001.334,257.594 1011.099,267.359 1018.555,259.905 1026.011,267.359 		"/>
		<path style="fill:#622366;" d="M935.505,250.138c0,11.822-9.583,21.408-21.408,21.408c-11.822,0-21.405-9.586-21.405-21.408
			c0-11.824,9.583-21.409,21.405-21.409C925.922,228.729,935.505,238.315,935.505,250.138z"/>
		<path style="fill:#CE84DA;" d="M834.445,772.551c0,11.822-9.583,21.408-21.408,21.408c-11.822,0-21.405-9.586-21.405-21.408
			c0-11.824,9.583-21.409,21.405-21.409C824.862,751.142,834.445,760.727,834.445,772.551z"/>
		<path style="fill:#CE84DA;" d="M359.315,96.601c0,11.822-9.583,21.408-21.408,21.408c-11.822,0-21.405-9.586-21.405-21.408
			c0-11.824,9.583-21.409,21.405-21.409C349.732,75.192,359.315,84.778,359.315,96.601z"/>
		<g>
			<g>
				<path style="fill:#FFA9A1;" d="M307.378,140.077c0,2.259-1.83,4.089-4.088,4.089c-2.258,0-4.088-1.83-4.088-4.089
					c0-2.259,1.83-4.089,4.088-4.089C305.548,135.988,307.378,137.818,307.378,140.077z"/>
				<path style="fill:#FFA9A1;" d="M322.643,140.077c0,2.259-1.83,4.089-4.088,4.089c-2.258,0-4.088-1.83-4.088-4.089
					c0-2.259,1.83-4.089,4.088-4.089C320.813,135.988,322.643,137.818,322.643,140.077z"/>
				<path style="fill:#FFA9A1;" d="M337.909,140.077c0,2.259-1.83,4.089-4.088,4.089c-2.258,0-4.088-1.83-4.088-4.089
					c0-2.259,1.83-4.089,4.088-4.089C336.079,135.988,337.909,137.818,337.909,140.077z"/>
				<path style="fill:#FFA9A1;" d="M353.174,140.077c0,2.259-1.83,4.089-4.088,4.089c-2.258,0-4.088-1.83-4.088-4.089
					c0-2.259,1.83-4.089,4.088-4.089C351.344,135.988,353.174,137.818,353.174,140.077z"/>
				<path style="fill:#FFA9A1;" d="M368.44,140.077c0,2.259-1.83,4.089-4.088,4.089c-2.258,0-4.088-1.83-4.088-4.089
					c0-2.259,1.83-4.089,4.088-4.089C366.609,135.988,368.44,137.818,368.44,140.077z"/>
				<path style="fill:#FFA9A1;" d="M383.705,140.077c0,2.259-1.83,4.089-4.088,4.089c-2.258,0-4.088-1.83-4.088-4.089
					c0-2.259,1.83-4.089,4.088-4.089C381.875,135.988,383.705,137.818,383.705,140.077z"/>
				<path style="fill:#FFA9A1;" d="M398.97,140.077c0,2.259-1.83,4.089-4.088,4.089c-2.258,0-4.088-1.83-4.088-4.089
					c0-2.259,1.83-4.089,4.088-4.089C397.14,135.988,398.97,137.818,398.97,140.077z"/>
				<path style="fill:#FFA9A1;" d="M414.236,140.077c0,2.259-1.83,4.089-4.088,4.089c-2.258,0-4.088-1.83-4.088-4.089
					c0-2.259,1.83-4.089,4.088-4.089C412.406,135.988,414.236,137.818,414.236,140.077z"/>
				<path style="fill:#FFA9A1;" d="M429.501,140.077c0,2.259-1.83,4.089-4.088,4.089c-2.258,0-4.088-1.83-4.088-4.089
					c0-2.259,1.83-4.089,4.088-4.089C427.671,135.988,429.501,137.818,429.501,140.077z"/>
				<path style="fill:#FFA9A1;" d="M444.766,140.077c0,2.259-1.83,4.089-4.088,4.089c-2.258,0-4.088-1.83-4.088-4.089
					c0-2.259,1.83-4.089,4.088-4.089C442.936,135.988,444.766,137.818,444.766,140.077z"/>
				<path style="fill:#FFA9A1;" d="M460.032,140.077c0,2.259-1.83,4.089-4.088,4.089s-4.088-1.83-4.088-4.089
					c0-2.259,1.83-4.089,4.088-4.089S460.032,137.818,460.032,140.077z"/>
			</g>
			<g>
				<path style="fill:#FFA9A1;" d="M307.378,153.072c0,2.259-1.83,4.089-4.088,4.089c-2.258,0-4.088-1.83-4.088-4.089
					s1.83-4.089,4.088-4.089C305.548,148.982,307.378,150.812,307.378,153.072z"/>
				<circle style="fill:#FFA9A1;" cx="318.555" cy="153.072" r="4.089"/>
				<circle style="fill:#FFA9A1;" cx="333.821" cy="153.072" r="4.089"/>
				<circle style="fill:#FFA9A1;" cx="349.086" cy="153.072" r="4.089"/>
				<circle style="fill:#FFA9A1;" cx="364.352" cy="153.072" r="4.089"/>
				<circle style="fill:#FFA9A1;" cx="379.617" cy="153.072" r="4.089"/>
				<circle style="fill:#FFA9A1;" cx="394.882" cy="153.072" r="4.089"/>
				<circle style="fill:#FFA9A1;" cx="410.148" cy="153.072" r="4.089"/>
				<circle style="fill:#FFA9A1;" cx="425.413" cy="153.072" r="4.089"/>
				<circle style="fill:#FFA9A1;" cx="440.678" cy="153.072" r="4.089"/>
				<circle style="fill:#FFA9A1;" cx="455.944" cy="153.072" r="4.089"/>
			</g>
			<g>
				<path style="fill:#FFA9A1;" d="M307.378,166.066c0,2.259-1.83,4.089-4.088,4.089c-2.258,0-4.088-1.83-4.088-4.089
					s1.83-4.089,4.088-4.089C305.548,161.976,307.378,163.806,307.378,166.066z"/>
				<path style="fill:#FFA9A1;" d="M322.643,166.066c0,2.259-1.83,4.089-4.088,4.089c-2.258,0-4.088-1.83-4.088-4.089
					s1.83-4.089,4.088-4.089C320.813,161.976,322.643,163.806,322.643,166.066z"/>
				<path style="fill:#FFA9A1;" d="M337.909,166.066c0,2.259-1.83,4.089-4.088,4.089c-2.258,0-4.088-1.83-4.088-4.089
					s1.83-4.089,4.088-4.089C336.079,161.976,337.909,163.806,337.909,166.066z"/>
				<path style="fill:#FFA9A1;" d="M353.174,166.066c0,2.259-1.83,4.089-4.088,4.089c-2.258,0-4.088-1.83-4.088-4.089
					s1.83-4.089,4.088-4.089C351.344,161.976,353.174,163.806,353.174,166.066z"/>
				<path style="fill:#FFA9A1;" d="M368.44,166.066c0,2.259-1.83,4.089-4.088,4.089c-2.258,0-4.088-1.83-4.088-4.089
					s1.83-4.089,4.088-4.089C366.609,161.976,368.44,163.806,368.44,166.066z"/>
				<path style="fill:#FFA9A1;" d="M383.705,166.066c0,2.259-1.83,4.089-4.088,4.089c-2.258,0-4.088-1.83-4.088-4.089
					s1.83-4.089,4.088-4.089C381.875,161.976,383.705,163.806,383.705,166.066z"/>
				<path style="fill:#FFA9A1;" d="M398.97,166.066c0,2.259-1.83,4.089-4.088,4.089c-2.258,0-4.088-1.83-4.088-4.089
					s1.83-4.089,4.088-4.089C397.14,161.976,398.97,163.806,398.97,166.066z"/>
				<path style="fill:#FFA9A1;" d="M414.236,166.066c0,2.259-1.83,4.089-4.088,4.089c-2.258,0-4.088-1.83-4.088-4.089
					s1.83-4.089,4.088-4.089C412.406,161.976,414.236,163.806,414.236,166.066z"/>
				<path style="fill:#FFA9A1;" d="M429.501,166.066c0,2.259-1.83,4.089-4.088,4.089c-2.258,0-4.088-1.83-4.088-4.089
					s1.83-4.089,4.088-4.089C427.671,161.976,429.501,163.806,429.501,166.066z"/>
				<path style="fill:#FFA9A1;" d="M444.766,166.066c0,2.259-1.83,4.089-4.088,4.089c-2.258,0-4.088-1.83-4.088-4.089
					s1.83-4.089,4.088-4.089C442.936,161.976,444.766,163.806,444.766,166.066z"/>
				<path style="fill:#FFA9A1;" d="M460.032,166.066c0,2.259-1.83,4.089-4.088,4.089s-4.088-1.83-4.088-4.089
					s1.83-4.089,4.088-4.089S460.032,163.806,460.032,166.066z"/>
			</g>
			<g>
				<path style="fill:#FFA9A1;" d="M307.378,179.06c0,2.259-1.83,4.089-4.088,4.089c-2.258,0-4.088-1.83-4.088-4.089
					s1.83-4.089,4.088-4.089C305.548,174.97,307.378,176.8,307.378,179.06z"/>
				<circle style="fill:#FFA9A1;" cx="318.555" cy="179.06" r="4.089"/>
				<circle style="fill:#FFA9A1;" cx="333.821" cy="179.06" r="4.089"/>
				<circle style="fill:#FFA9A1;" cx="349.086" cy="179.06" r="4.089"/>
				<circle style="fill:#FFA9A1;" cx="364.352" cy="179.06" r="4.089"/>
				<circle style="fill:#FFA9A1;" cx="379.617" cy="179.06" r="4.089"/>
				<circle style="fill:#FFA9A1;" cx="394.882" cy="179.06" r="4.089"/>
				<circle style="fill:#FFA9A1;" cx="410.148" cy="179.06" r="4.089"/>
				<circle style="fill:#FFA9A1;" cx="425.413" cy="179.06" r="4.089"/>
				<circle style="fill:#FFA9A1;" cx="440.678" cy="179.06" r="4.089"/>
				<circle style="fill:#FFA9A1;" cx="455.944" cy="179.06" r="4.089"/>
			</g>
			<g>
				<path style="fill:#FFA9A1;" d="M307.378,192.054c0,2.259-1.83,4.089-4.088,4.089c-2.258,0-4.088-1.83-4.088-4.089
					s1.83-4.089,4.088-4.089C305.548,187.964,307.378,189.794,307.378,192.054z"/>
				<circle style="fill:#FFA9A1;" cx="318.555" cy="192.054" r="4.089"/>
				<circle style="fill:#FFA9A1;" cx="333.821" cy="192.054" r="4.089"/>
				<circle style="fill:#FFA9A1;" cx="349.086" cy="192.054" r="4.089"/>
				<circle style="fill:#FFA9A1;" cx="364.352" cy="192.054" r="4.089"/>
				<circle style="fill:#FFA9A1;" cx="379.617" cy="192.054" r="4.089"/>
				<circle style="fill:#FFA9A1;" cx="394.882" cy="192.054" r="4.089"/>
				<circle style="fill:#FFA9A1;" cx="410.148" cy="192.054" r="4.089"/>
				<circle style="fill:#FFA9A1;" cx="425.413" cy="192.054" r="4.089"/>
				<circle style="fill:#FFA9A1;" cx="440.678" cy="192.054" r="4.089"/>
				<circle style="fill:#FFA9A1;" cx="455.944" cy="192.054" r="4.089"/>
			</g>
			<g>
				<path style="fill:#FFA9A1;" d="M307.378,205.048c0,2.259-1.83,4.089-4.088,4.089c-2.258,0-4.088-1.83-4.088-4.089
					c0-2.26,1.83-4.089,4.088-4.089C305.548,200.959,307.378,202.788,307.378,205.048z"/>
				<path style="fill:#FFA9A1;" d="M322.643,205.048c0,2.259-1.83,4.089-4.088,4.089c-2.258,0-4.088-1.83-4.088-4.089
					c0-2.26,1.83-4.089,4.088-4.089C320.813,200.959,322.643,202.788,322.643,205.048z"/>
				<path style="fill:#FFA9A1;" d="M337.909,205.048c0,2.259-1.83,4.089-4.088,4.089c-2.258,0-4.088-1.83-4.088-4.089
					c0-2.26,1.83-4.089,4.088-4.089C336.079,200.959,337.909,202.788,337.909,205.048z"/>
				<path style="fill:#FFA9A1;" d="M353.174,205.048c0,2.259-1.83,4.089-4.088,4.089c-2.258,0-4.088-1.83-4.088-4.089
					c0-2.26,1.83-4.089,4.088-4.089C351.344,200.959,353.174,202.788,353.174,205.048z"/>
				<path style="fill:#FFA9A1;" d="M368.44,205.048c0,2.259-1.83,4.089-4.088,4.089c-2.258,0-4.088-1.83-4.088-4.089
					c0-2.26,1.83-4.089,4.088-4.089C366.609,200.959,368.44,202.788,368.44,205.048z"/>
				<path style="fill:#FFA9A1;" d="M383.705,205.048c0,2.259-1.83,4.089-4.088,4.089c-2.258,0-4.088-1.83-4.088-4.089
					c0-2.26,1.83-4.089,4.088-4.089C381.875,200.959,383.705,202.788,383.705,205.048z"/>
				<path style="fill:#FFA9A1;" d="M398.97,205.048c0,2.259-1.83,4.089-4.088,4.089c-2.258,0-4.088-1.83-4.088-4.089
					c0-2.26,1.83-4.089,4.088-4.089C397.14,200.959,398.97,202.788,398.97,205.048z"/>
				<path style="fill:#FFA9A1;" d="M414.236,205.048c0,2.259-1.83,4.089-4.088,4.089c-2.258,0-4.088-1.83-4.088-4.089
					c0-2.26,1.83-4.089,4.088-4.089C412.406,200.959,414.236,202.788,414.236,205.048z"/>
				<path style="fill:#FFA9A1;" d="M429.501,205.048c0,2.259-1.83,4.089-4.088,4.089c-2.258,0-4.088-1.83-4.088-4.089
					c0-2.26,1.83-4.089,4.088-4.089C427.671,200.959,429.501,202.788,429.501,205.048z"/>
				<path style="fill:#FFA9A1;" d="M444.766,205.048c0,2.259-1.83,4.089-4.088,4.089c-2.258,0-4.088-1.83-4.088-4.089
					c0-2.26,1.83-4.089,4.088-4.089C442.936,200.959,444.766,202.788,444.766,205.048z"/>
				<path style="fill:#FFA9A1;" d="M460.032,205.048c0,2.259-1.83,4.089-4.088,4.089s-4.088-1.83-4.088-4.089
					c0-2.26,1.83-4.089,4.088-4.089S460.032,202.788,460.032,205.048z"/>
			</g>
			<g>
				<path style="fill:#FFA9A1;" d="M307.378,218.042c0,2.259-1.83,4.089-4.088,4.089c-2.258,0-4.088-1.83-4.088-4.089
					c0-2.259,1.83-4.089,4.088-4.089C305.548,213.952,307.378,215.782,307.378,218.042z"/>
				<circle style="fill:#FFA9A1;" cx="318.555" cy="218.042" r="4.089"/>
				<circle style="fill:#FFA9A1;" cx="333.821" cy="218.042" r="4.089"/>
				<circle style="fill:#FFA9A1;" cx="349.086" cy="218.042" r="4.089"/>
				<circle style="fill:#FFA9A1;" cx="364.352" cy="218.042" r="4.089"/>
				<circle style="fill:#FFA9A1;" cx="379.617" cy="218.042" r="4.089"/>
				<circle style="fill:#FFA9A1;" cx="394.882" cy="218.042" r="4.089"/>
				<circle style="fill:#FFA9A1;" cx="410.148" cy="218.042" r="4.089"/>
				<circle style="fill:#FFA9A1;" cx="425.413" cy="218.042" r="4.089"/>
				<circle style="fill:#FFA9A1;" cx="440.678" cy="218.042" r="4.089"/>
				<circle style="fill:#FFA9A1;" cx="455.944" cy="218.042" r="4.089"/>
			</g>
			<g>
				<path style="fill:#FFA9A1;" d="M307.378,231.036c0,2.259-1.83,4.089-4.088,4.089c-2.258,0-4.088-1.83-4.088-4.089
					s1.83-4.089,4.088-4.089C305.548,226.947,307.378,228.777,307.378,231.036z"/>
				<circle style="fill:#FFA9A1;" cx="318.555" cy="231.036" r="4.089"/>
				<circle style="fill:#FFA9A1;" cx="333.821" cy="231.036" r="4.089"/>
				<circle style="fill:#FFA9A1;" cx="349.086" cy="231.036" r="4.089"/>
				<circle style="fill:#FFA9A1;" cx="364.352" cy="231.036" r="4.089"/>
				<circle style="fill:#FFA9A1;" cx="379.617" cy="231.036" r="4.089"/>
				<circle style="fill:#FFA9A1;" cx="394.882" cy="231.036" r="4.089"/>
				<circle style="fill:#FFA9A1;" cx="410.148" cy="231.036" r="4.089"/>
				<circle style="fill:#FFA9A1;" cx="425.413" cy="231.036" r="4.089"/>
				<circle style="fill:#FFA9A1;" cx="440.678" cy="231.036" r="4.089"/>
				<circle style="fill:#FFA9A1;" cx="455.944" cy="231.036" r="4.089"/>
			</g>
			<g>
				<path style="fill:#FFA9A1;" d="M307.378,244.03c0,2.26-1.83,4.089-4.088,4.089c-2.258,0-4.088-1.83-4.088-4.089
					c0-2.259,1.83-4.089,4.088-4.089C305.548,239.941,307.378,241.77,307.378,244.03z"/>
				<path style="fill:#FFA9A1;" d="M322.643,244.03c0,2.26-1.83,4.089-4.088,4.089c-2.258,0-4.088-1.83-4.088-4.089
					c0-2.259,1.83-4.089,4.088-4.089C320.813,239.941,322.643,241.77,322.643,244.03z"/>
				<path style="fill:#FFA9A1;" d="M337.909,244.03c0,2.26-1.83,4.089-4.088,4.089c-2.258,0-4.088-1.83-4.088-4.089
					c0-2.259,1.83-4.089,4.088-4.089C336.079,239.941,337.909,241.77,337.909,244.03z"/>
				<path style="fill:#FFA9A1;" d="M353.174,244.03c0,2.26-1.83,4.089-4.088,4.089c-2.258,0-4.088-1.83-4.088-4.089
					c0-2.259,1.83-4.089,4.088-4.089C351.344,239.941,353.174,241.77,353.174,244.03z"/>
				<path style="fill:#FFA9A1;" d="M368.44,244.03c0,2.26-1.83,4.089-4.088,4.089c-2.258,0-4.088-1.83-4.088-4.089
					c0-2.259,1.83-4.089,4.088-4.089C366.609,239.941,368.44,241.77,368.44,244.03z"/>
				<path style="fill:#FFA9A1;" d="M383.705,244.03c0,2.26-1.83,4.089-4.088,4.089c-2.258,0-4.088-1.83-4.088-4.089
					c0-2.259,1.83-4.089,4.088-4.089C381.875,239.941,383.705,241.77,383.705,244.03z"/>
				<path style="fill:#FFA9A1;" d="M398.97,244.03c0,2.26-1.83,4.089-4.088,4.089c-2.258,0-4.088-1.83-4.088-4.089
					c0-2.259,1.83-4.089,4.088-4.089C397.14,239.941,398.97,241.77,398.97,244.03z"/>
				<path style="fill:#FFA9A1;" d="M414.236,244.03c0,2.26-1.83,4.089-4.088,4.089c-2.258,0-4.088-1.83-4.088-4.089
					c0-2.259,1.83-4.089,4.088-4.089C412.406,239.941,414.236,241.77,414.236,244.03z"/>
				<path style="fill:#FFA9A1;" d="M429.501,244.03c0,2.26-1.83,4.089-4.088,4.089c-2.258,0-4.088-1.83-4.088-4.089
					c0-2.259,1.83-4.089,4.088-4.089C427.671,239.941,429.501,241.77,429.501,244.03z"/>
				<path style="fill:#FFA9A1;" d="M444.766,244.03c0,2.26-1.83,4.089-4.088,4.089c-2.258,0-4.088-1.83-4.088-4.089
					c0-2.259,1.83-4.089,4.088-4.089C442.936,239.941,444.766,241.77,444.766,244.03z"/>
				<path style="fill:#FFA9A1;" d="M460.032,244.03c0,2.26-1.83,4.089-4.088,4.089s-4.088-1.83-4.088-4.089
					c0-2.259,1.83-4.089,4.088-4.089S460.032,241.77,460.032,244.03z"/>
			</g>
			<g>
				<path style="fill:#FFA9A1;" d="M307.378,257.024c0,2.259-1.83,4.089-4.088,4.089c-2.258,0-4.088-1.83-4.088-4.089
					c0-2.259,1.83-4.089,4.088-4.089C305.548,252.935,307.378,254.765,307.378,257.024z"/>
				<circle style="fill:#FFA9A1;" cx="318.555" cy="257.024" r="4.089"/>
				<circle style="fill:#FFA9A1;" cx="333.821" cy="257.024" r="4.089"/>
				<circle style="fill:#FFA9A1;" cx="349.086" cy="257.024" r="4.089"/>
				<circle style="fill:#FFA9A1;" cx="364.352" cy="257.024" r="4.089"/>
				<circle style="fill:#FFA9A1;" cx="379.617" cy="257.024" r="4.089"/>
				<circle style="fill:#FFA9A1;" cx="394.882" cy="257.024" r="4.089"/>
				<circle style="fill:#FFA9A1;" cx="410.148" cy="257.024" r="4.089"/>
				<circle style="fill:#FFA9A1;" cx="425.413" cy="257.024" r="4.089"/>
				<circle style="fill:#FFA9A1;" cx="440.678" cy="257.024" r="4.089"/>
				<circle style="fill:#FFA9A1;" cx="455.944" cy="257.024" r="4.089"/>
			</g>
			<g>
				<path style="fill:#FFA9A1;" d="M307.378,270.018c0,2.259-1.83,4.089-4.088,4.089c-2.258,0-4.088-1.83-4.088-4.089
					c0-2.259,1.83-4.089,4.088-4.089C305.548,265.929,307.378,267.759,307.378,270.018z"/>
				<path style="fill:#FFA9A1;" d="M322.643,270.018c0,2.259-1.83,4.089-4.088,4.089c-2.258,0-4.088-1.83-4.088-4.089
					c0-2.259,1.83-4.089,4.088-4.089C320.813,265.929,322.643,267.759,322.643,270.018z"/>
				<path style="fill:#FFA9A1;" d="M337.909,270.018c0,2.259-1.83,4.089-4.088,4.089c-2.258,0-4.088-1.83-4.088-4.089
					c0-2.259,1.83-4.089,4.088-4.089C336.079,265.929,337.909,267.759,337.909,270.018z"/>
				<path style="fill:#FFA9A1;" d="M353.174,270.018c0,2.259-1.83,4.089-4.088,4.089c-2.258,0-4.088-1.83-4.088-4.089
					c0-2.259,1.83-4.089,4.088-4.089C351.344,265.929,353.174,267.759,353.174,270.018z"/>
				<path style="fill:#FFA9A1;" d="M368.44,270.018c0,2.259-1.83,4.089-4.088,4.089c-2.258,0-4.088-1.83-4.088-4.089
					c0-2.259,1.83-4.089,4.088-4.089C366.609,265.929,368.44,267.759,368.44,270.018z"/>
				<path style="fill:#FFA9A1;" d="M383.705,270.018c0,2.259-1.83,4.089-4.088,4.089c-2.258,0-4.088-1.83-4.088-4.089
					c0-2.259,1.83-4.089,4.088-4.089C381.875,265.929,383.705,267.759,383.705,270.018z"/>
				<path style="fill:#FFA9A1;" d="M398.97,270.018c0,2.259-1.83,4.089-4.088,4.089c-2.258,0-4.088-1.83-4.088-4.089
					c0-2.259,1.83-4.089,4.088-4.089C397.14,265.929,398.97,267.759,398.97,270.018z"/>
				<path style="fill:#FFA9A1;" d="M414.236,270.018c0,2.259-1.83,4.089-4.088,4.089c-2.258,0-4.088-1.83-4.088-4.089
					c0-2.259,1.83-4.089,4.088-4.089C412.406,265.929,414.236,267.759,414.236,270.018z"/>
				<path style="fill:#FFA9A1;" d="M429.501,270.018c0,2.259-1.83,4.089-4.088,4.089c-2.258,0-4.088-1.83-4.088-4.089
					c0-2.259,1.83-4.089,4.088-4.089C427.671,265.929,429.501,267.759,429.501,270.018z"/>
				<path style="fill:#FFA9A1;" d="M444.766,270.018c0,2.259-1.83,4.089-4.088,4.089c-2.258,0-4.088-1.83-4.088-4.089
					c0-2.259,1.83-4.089,4.088-4.089C442.936,265.929,444.766,267.759,444.766,270.018z"/>
				<path style="fill:#FFA9A1;" d="M460.032,270.018c0,2.259-1.83,4.089-4.088,4.089s-4.088-1.83-4.088-4.089
					c0-2.259,1.83-4.089,4.088-4.089S460.032,267.759,460.032,270.018z"/>
			</g>
			<g>
				<path style="fill:#FFA9A1;" d="M307.378,283.012c0,2.259-1.83,4.089-4.088,4.089c-2.258,0-4.088-1.83-4.088-4.089
					c0-2.259,1.83-4.089,4.088-4.089C305.548,278.923,307.378,280.753,307.378,283.012z"/>
				<path style="fill:#FFA9A1;" d="M322.643,283.012c0,2.259-1.83,4.089-4.088,4.089c-2.258,0-4.088-1.83-4.088-4.089
					c0-2.259,1.83-4.089,4.088-4.089C320.813,278.923,322.643,280.753,322.643,283.012z"/>
				<path style="fill:#FFA9A1;" d="M337.909,283.012c0,2.259-1.83,4.089-4.088,4.089c-2.258,0-4.088-1.83-4.088-4.089
					c0-2.259,1.83-4.089,4.088-4.089C336.079,278.923,337.909,280.753,337.909,283.012z"/>
				<path style="fill:#FFA9A1;" d="M353.174,283.012c0,2.259-1.83,4.089-4.088,4.089c-2.258,0-4.088-1.83-4.088-4.089
					c0-2.259,1.83-4.089,4.088-4.089C351.344,278.923,353.174,280.753,353.174,283.012z"/>
				<path style="fill:#FFA9A1;" d="M368.44,283.012c0,2.259-1.83,4.089-4.088,4.089c-2.258,0-4.088-1.83-4.088-4.089
					c0-2.259,1.83-4.089,4.088-4.089C366.609,278.923,368.44,280.753,368.44,283.012z"/>
				<path style="fill:#FFA9A1;" d="M383.705,283.012c0,2.259-1.83,4.089-4.088,4.089c-2.258,0-4.088-1.83-4.088-4.089
					c0-2.259,1.83-4.089,4.088-4.089C381.875,278.923,383.705,280.753,383.705,283.012z"/>
				<path style="fill:#FFA9A1;" d="M398.97,283.012c0,2.259-1.83,4.089-4.088,4.089c-2.258,0-4.088-1.83-4.088-4.089
					c0-2.259,1.83-4.089,4.088-4.089C397.14,278.923,398.97,280.753,398.97,283.012z"/>
				<path style="fill:#FFA9A1;" d="M414.236,283.012c0,2.259-1.83,4.089-4.088,4.089c-2.258,0-4.088-1.83-4.088-4.089
					c0-2.259,1.83-4.089,4.088-4.089C412.406,278.923,414.236,280.753,414.236,283.012z"/>
				<path style="fill:#FFA9A1;" d="M429.501,283.012c0,2.259-1.83,4.089-4.088,4.089c-2.258,0-4.088-1.83-4.088-4.089
					c0-2.259,1.83-4.089,4.088-4.089C427.671,278.923,429.501,280.753,429.501,283.012z"/>
				<path style="fill:#FFA9A1;" d="M444.766,283.012c0,2.259-1.83,4.089-4.088,4.089c-2.258,0-4.088-1.83-4.088-4.089
					c0-2.259,1.83-4.089,4.088-4.089C442.936,278.923,444.766,280.753,444.766,283.012z"/>
				<path style="fill:#FFA9A1;" d="M460.032,283.012c0,2.259-1.83,4.089-4.088,4.089s-4.088-1.83-4.088-4.089
					c0-2.259,1.83-4.089,4.088-4.089S460.032,280.753,460.032,283.012z"/>
			</g>
		</g>
		<g>
			<polygon style="fill:none;stroke:#CE84DA;stroke-width:1.5;stroke-miterlimit:10;" points="452.826,927.096 494.577,927.096 
				494.577,854.785 			"/>
			<polygon style="fill:none;stroke:#FFA9A1;stroke-width:1.5;stroke-miterlimit:10;" points="501.977,873.881 501.977,873.884 
				501.977,946.195 543.725,946.192 			"/>
		</g>
		<g>
			<polygon style="fill:none;stroke:#00D6CA;stroke-width:1.5;stroke-miterlimit:10;" points="1039.43,111.418 997.679,111.418 
				997.679,183.729 			"/>
			<polygon style="fill:none;stroke:#FFA9A1;stroke-width:1.5;stroke-miterlimit:10;" points="990.279,164.633 990.279,164.63 
				990.279,92.319 948.531,92.322 			"/>
		</g>
		<path style="fill:#00D6CA;" d="M771.749,827.601c0,15.283-12.389,27.68-27.682,27.68c-15.284,0-27.673-12.397-27.673-27.68
			c0-15.29,12.389-27.683,27.673-27.683C759.36,799.918,771.749,812.312,771.749,827.601z"/>
		<path style="fill:#00D6CA;" d="M438.845,988.364c0,15.283-12.389,27.68-27.682,27.68c-15.284,0-27.673-12.397-27.673-27.68
			c0-15.29,12.389-27.683,27.673-27.683C426.456,960.681,438.845,973.074,438.845,988.364z"/>
		<path style="fill:#00D6CA;" d="M351.637,362.381c0,15.283-12.389,27.68-27.682,27.68c-15.284,0-27.673-12.397-27.673-27.68
			c0-15.29,12.389-27.683,27.673-27.683C339.248,334.698,351.637,347.092,351.637,362.381z"/>
		<path style="fill:#00D6CA;" d="M984.501,206.722c0,15.283-12.389,27.68-27.682,27.68c-15.284,0-27.673-12.397-27.673-27.68
			c0-15.29,12.389-27.683,27.673-27.683C972.112,179.039,984.501,191.433,984.501,206.722z"/>
		<path style="fill:#00D6CA;" d="M463.783,89.761c0,15.283-12.389,27.68-27.682,27.68c-15.284,0-27.673-12.397-27.673-27.68
			c0-15.29,12.389-27.683,27.673-27.683C451.394,62.078,463.783,74.472,463.783,89.761z"/>
	</g>
</g>
</svg>
